# This file uses centimeters as units for non-parametric coordinates.

mtllib fallen_tree.mtl
g default
v 0.500000 0.070711 -0.070711
v 0.500000 0.000000 -0.100000
v 0.500000 -0.070711 -0.070711
v 0.500000 -0.100000 0.000000
v 0.500000 -0.070711 0.070711
v 0.500000 0.000000 0.100000
v 0.500000 0.070711 0.070711
v 0.500000 0.100000 0.000000
v -0.500000 0.070711 -0.070711
v -0.500000 0.000000 -0.100000
v -0.500000 -0.070711 -0.070711
v -0.500000 -0.100000 0.000000
v -0.500000 -0.070711 0.070711
v -0.500000 0.000000 0.100000
v -0.500000 0.070711 0.070711
v -0.500000 0.100000 0.000000
v 0.500000 0.000000 0.000000
v -0.500000 0.000000 0.000000
vt 0.882239 0.045765
vt 0.771753 0.000000
vt 0.661268 0.045765
vt 0.615503 0.156250
vt 0.661268 0.266735
vt 0.771753 0.312500
vt 0.882239 0.266735
vt 0.928003 0.156250
vt 0.146155 0.312500
vt 0.177405 0.312500
vt 0.208655 0.312500
vt 0.239905 0.312500
vt 0.271155 0.312500
vt 0.302405 0.312500
vt 0.333655 0.312500
vt 0.364905 0.312500
vt 0.396155 0.312500
vt 0.146155 0.687500
vt 0.177405 0.687500
vt 0.208655 0.687500
vt 0.239905 0.687500
vt 0.271155 0.687500
vt 0.302405 0.687500
vt 0.333655 0.687500
vt 0.364905 0.687500
vt 0.396155 0.687500
vt 0.875087 0.733265
vt 0.764602 0.687500
vt 0.654117 0.733265
vt 0.608352 0.843750
vt 0.654117 0.954235
vt 0.764602 1.000000
vt 0.875087 0.954235
vt 0.920852 0.843750
vt 0.771753 0.156250
vt 0.764602 0.843750
vn 0.000000 0.382683 -0.923880
vn 0.000000 0.382683 -0.923880
vn 0.000000 0.382683 -0.923880
vn 0.000000 0.382683 -0.923880
vn -0.000000 -0.382683 -0.923880
vn -0.000000 -0.382683 -0.923880
vn -0.000000 -0.382683 -0.923880
vn -0.000000 -0.382683 -0.923880
vn -0.000000 -0.923880 -0.382683
vn -0.000000 -0.923880 -0.382683
vn -0.000000 -0.923880 -0.382683
vn -0.000000 -0.923880 -0.382683
vn 0.000000 -0.923880 0.382683
vn 0.000000 -0.923880 0.382683
vn 0.000000 -0.923880 0.382683
vn 0.000000 -0.923880 0.382683
vn 0.000000 -0.382683 0.923880
vn 0.000000 -0.382683 0.923880
vn 0.000000 -0.382683 0.923880
vn 0.000000 -0.382683 0.923880
vn 0.000000 0.382683 0.923880
vn 0.000000 0.382683 0.923880
vn 0.000000 0.382683 0.923880
vn 0.000000 0.382683 0.923880
vn 0.000000 0.923880 0.382683
vn 0.000000 0.923880 0.382683
vn 0.000000 0.923880 0.382683
vn 0.000000 0.923880 0.382683
vn 0.000000 0.923879 -0.382684
vn 0.000000 0.923879 -0.382684
vn 0.000000 0.923879 -0.382684
vn 0.000000 0.923879 -0.382684
vn 1.000000 0.000000 0.000000
vn 1.000000 0.000000 0.000000
vn 1.000000 0.000000 0.000000
vn 1.000000 0.000000 0.000000
vn 1.000000 0.000000 0.000000
vn 1.000000 0.000000 0.000000
vn 1.000000 0.000000 0.000000
vn 1.000000 0.000000 0.000000
vn 1.000000 0.000000 0.000000
vn -1.000000 0.000000 0.000000
vn -1.000000 0.000000 0.000000
vn -1.000000 0.000000 0.000000
vn -1.000000 0.000000 0.000000
vn -1.000000 0.000000 0.000000
vn -1.000000 0.000000 0.000000
vn -1.000000 0.000000 0.000000
vn -1.000000 0.000000 0.000000
vn -1.000000 0.000000 0.000000
s off
g pCylinder1
usemtl lambert2SG
f 1/9/1 2/10/2 10/19/3 9/18/4
f 2/10/5 3/11/6 11/20/7 10/19/8
f 3/11/9 4/12/10 12/21/11 11/20/12
f 4/12/13 5/13/14 13/22/15 12/21/16
f 5/13/17 6/14/18 14/23/19 13/22/20
f 6/14/21 7/15/22 15/24/23 14/23/24
f 7/15/25 8/16/26 16/25/27 15/24/28
f 8/16/29 1/17/30 9/26/31 16/25/32
s 1
f 2/2/33 1/1/34 17/35/35
f 3/3/36 2/2/33 17/35/35
f 4/4/37 3/3/36 17/35/35
f 5/5/38 4/4/37 17/35/35
f 6/6/39 5/5/38 17/35/35
f 7/7/40 6/6/39 17/35/35
f 8/8/41 7/7/40 17/35/35
f 1/1/34 8/8/41 17/35/35
s 2
f 9/33/42 10/32/43 18/36/44
f 10/32/43 11/31/45 18/36/44
f 11/31/45 12/30/46 18/36/44
f 12/30/46 13/29/47 18/36/44
f 13/29/47 14/28/48 18/36/44
f 14/28/48 15/27/49 18/36/44
f 15/27/49 16/34/50 18/36/44
f 16/34/50 9/33/42 18/36/44
